<?xml version="1.0" standalone="no"?>
<!DOCTYPE svg PUBLIC "-//W3C//DTD SVG 20010904//EN"
 "http://www.w3.org/TR/2001/REC-SVG-20010904/DTD/svg10.dtd">
<svg version="1.0" xmlns="http://www.w3.org/2000/svg"
 width="695.000000pt" height="695.000000pt" viewBox="0 0 695.000000 695.000000"
 preserveAspectRatio="xMidYMid meet">
<metadata>
Created by potrace 1.11, written by Peter Selinger 2001-2013
</metadata>
<g transform="translate(0.000000,695.000000) scale(0.100000,-0.100000)"
fill="#000000" stroke="none">
<path d="M1390 6365 c0 -52 -3 -95 -6 -95 -3 0 -39 11 -80 25 -41 14 -79 25
-84 25 -7 0 -9 -628 -8 -1877 3 -1740 5 -1887 21 -1998 109 -731 445 -1294
994 -1661 129 -87 388 -213 539 -262 279 -92 521 -127 829 -119 289 7 532 54
777 150 809 316 1310 1016 1388 1937 7 85 10 308 8 599 l-3 464 -75 26 -75 27
-5 99 -5 98 -215 73 c-118 40 -343 116 -500 169 -157 53 -409 139 -560 190
-151 51 -516 175 -810 275 -294 100 -778 264 -1075 365 -297 101 -566 193
-597 204 -32 11 -58 17 -58 14 0 -8 140 -192 152 -199 5 -3 135 -48 291 -101
755 -254 1032 -348 1652 -558 840 -284 1265 -428 1379 -466 208 -69 236 -81
236 -100 0 -11 -4 -19 -8 -19 -10 0 -285 92 -2081 699 -783 265 -1425 480
-1427 478 -2 -1 30 -46 71 -99 52 -68 83 -99 107 -108 32 -11 522 -177 1838
-623 333 -113 805 -273 1050 -356 244 -83 444 -151 445 -151 0 0 -3 -183 -6
-407 -7 -456 -19 -576 -84 -827 -187 -729 -692 -1248 -1385 -1426 -223 -57
-499 -75 -727 -46 -873 111 -1524 743 -1713 1662 -55 269 -53 195 -57 1982 -2
910 0 1652 4 1649 4 -3 555 -185 1223 -407 2135 -706 2983 -987 3008 -997 9
-4 12 123 12 615 l0 620 -60 20 -60 21 0 -546 c0 -432 -3 -544 -12 -540 -21 7
-856 284 -2018 667 -2288 755 -2100 691 -2100 722 l0 27 118 -39 c1720 -566
3040 -1001 3622 -1192 l345 -114 3 510 c1 280 -1 513 -5 517 -5 4 -32 14 -60
23 l-53 15 0 -445 c0 -244 -1 -444 -2 -444 -5 0 -676 221 -1313 433 -1510 500
-2772 917 -2778 917 -4 0 -7 -43 -7 -95z m0 -1946 c6 -1853 3 -1759 62 -2044
146 -715 552 -1264 1153 -1560 312 -154 651 -226 1005 -212 672 27 1249 347
1617 897 147 220 264 506 322 789 47 226 53 299 58 739 3 232 8 422 12 422 33
-1 34 -11 28 -421 -6 -417 -16 -542 -57 -744 -190 -929 -831 -1559 -1731
-1702 -171 -27 -500 -24 -670 5 -482 85 -878 293 -1204 633 -323 336 -534 788
-609 1309 -32 221 -36 411 -36 2007 l0 1602 23 -8 22 -8 5 -1704z"/>
<path d="M2069 5759 c-98 -15 -196 -89 -245 -186 -26 -53 -29 -67 -29 -158 0
-92 2 -104 30 -154 68 -123 222 -204 357 -186 54 8 59 13 81 78 l16 48 -32 -8
c-60 -15 -179 -9 -219 10 -106 53 -149 159 -114 281 22 75 91 149 156 166 95
25 207 -13 277 -95 l39 -46 18 51 c10 28 16 57 13 64 -10 26 -106 94 -159 114
-64 23 -127 31 -189 21z"/>
<path d="M2627 5559 c-210 -49 -322 -293 -224 -485 131 -256 490 -257 624 -2
25 47 28 63 28 148 -1 75 -5 105 -22 142 -69 150 -245 235 -406 197z m181
-115 c126 -52 176 -210 106 -335 -23 -40 -45 -63 -85 -87 -51 -31 -59 -33
-129 -30 -65 3 -81 7 -122 35 -142 99 -123 329 34 407 61 30 138 34 196 10z"/>
<path d="M3221 5388 c-14 -37 -202 -591 -204 -602 -2 -10 73 -38 88 -32 6 2
19 30 29 62 10 33 41 124 69 203 l50 144 15 -37 c18 -45 270 -538 281 -549 7
-7 222 602 221 625 0 3 -20 13 -45 22 -45 15 -46 15 -54 -7 -5 -12 -37 -105
-71 -207 l-63 -185 -145 285 c-79 157 -148 289 -153 294 -5 5 -12 -1 -18 -16z"/>
<path d="M3855 5123 c-36 -104 -187 -549 -188 -557 -1 -4 21 -16 49 -26 l50
-18 49 142 c26 77 49 142 50 143 0 1 52 -16 114 -37 61 -22 116 -40 121 -40 4
0 15 20 23 44 l15 45 -106 36 c-145 48 -138 42 -117 106 32 97 21 94 147 48
61 -22 117 -38 123 -35 9 3 38 77 32 82 -6 4 -330 114 -337 114 -4 0 -16 -21
-25 -47z"/>
<path d="M4275 5019 c-3 -8 -36 -106 -75 -219 -55 -161 -70 -216 -70 -263 0
-125 82 -204 250 -239 108 -22 192 16 242 109 26 46 158 422 158 448 0 6 -22
18 -50 27 l-49 16 -62 -187 c-69 -210 -98 -270 -139 -294 -62 -37 -183 -6
-221 57 -31 51 -23 98 51 315 39 112 70 206 70 208 0 4 -42 21 -75 29 -16 4
-27 1 -30 -7z"/>
<path d="M4905 4785 c-46 -25 -66 -46 -86 -90 -38 -82 -18 -136 96 -264 86
-95 96 -131 50 -176 -55 -56 -185 -5 -185 72 0 29 -8 33 -58 26 -40 -5 -42 -7
-42 -40 0 -84 78 -161 188 -184 97 -20 173 17 217 105 45 90 29 147 -70 251
-100 106 -115 146 -70 190 42 43 121 24 145 -35 13 -31 36 -37 88 -23 20 5 23
10 18 36 -3 17 -17 44 -30 61 -51 68 -195 107 -261 71z"/>
<path d="M5475 4568 c-33 -35 -145 -152 -250 -261 -104 -109 -190 -203 -190
-210 0 -6 22 -18 49 -26 l48 -15 62 67 61 68 115 -41 c63 -23 118 -47 122 -53
4 -7 8 -32 8 -57 0 -25 3 -61 6 -81 6 -33 11 -37 57 -52 28 -9 52 -15 54 -13
5 5 -68 699 -76 719 -5 16 -16 9 -66 -45z m3 -271 c6 -60 5 -87 -2 -85 -6 2
-43 14 -83 27 l-72 25 72 76 c48 51 73 72 74 61 2 -9 7 -56 11 -104z"/>
<path d="M2226 4483 c26 -38 71 -99 99 -138 29 -38 128 -176 222 -305 94 -129
317 -437 497 -685 l327 -450 -902 -3 -902 -2 7 -92 c9 -118 47 -346 80 -475
111 -436 338 -811 650 -1071 576 -479 1446 -588 2086 -261 99 51 227 139 236
164 3 8 -109 170 -274 397 -154 211 -433 595 -621 853 l-342 470 1031 3 1030
2 -2 283 -3 282 -360 122 c-198 66 -709 239 -1135 383 -426 144 -966 326
-1200 405 -234 79 -452 153 -484 164 -90 32 -93 29 -40 -46z"/>
<path d="M2025 4133 c-67 -19 -111 -90 -102 -165 7 -57 29 -89 78 -117 51 -29
107 -27 155 5 51 35 62 51 70 102 8 55 -16 118 -57 151 -31 24 -101 36 -144
24z"/>
<path d="M2570 3413 c-72 -45 -102 -146 -63 -211 34 -56 71 -77 135 -77 64 0
97 18 136 76 45 65 10 177 -65 213 -42 20 -110 19 -143 -1z"/>
<path d="M4118 2752 c-32 -13 -78 -62 -93 -99 -48 -114 68 -245 188 -212 81
22 129 100 117 187 -13 90 -129 158 -212 124z"/>
<path d="M4449 2349 c-55 -24 -99 -86 -99 -139 0 -59 38 -122 90 -147 56 -29
94 -29 145 0 52 29 85 79 85 129 0 127 -110 206 -221 157z"/>
<path d="M4765 1946 c-61 -37 -80 -79 -77 -165 2 -27 13 -45 52 -83 47 -45 53
-48 103 -48 67 0 116 32 147 95 69 143 -88 283 -225 201z"/>
</g>
</svg>
