<svg id="svg" version="1.1" width="750px" height="600px" viewBox="0 0 750 600" xmlns="http://www.w3.org/2000/svg" xmlns:xlink="http://www.w3.org/1999/xlink" ><g id="svgg"><path id="path0" d="M179.673 21.712 C 179.439 21.994,179.192 23.209,179.124 24.412 L 179.000 26.600 96.300 26.701 L 13.599 26.802 13.700 314.190 L 13.800 601.578 96.200 601.830 C 141.520 601.968,178.735 602.164,178.900 602.264 C 179.065 602.365,179.200 603.407,179.200 604.581 C 179.200 607.402,177.576 607.200,200.233 607.200 L 220.000 607.200 220.000 604.824 C 220.000 603.517,220.135 602.365,220.300 602.264 C 220.465 602.163,257.860 601.967,303.400 601.829 L 386.200 601.577 386.300 314.189 L 386.401 26.802 303.300 26.701 L 220.200 26.600 220.082 23.900 L 219.963 21.200 200.031 21.200 C 184.321 21.200,180.008 21.308,179.673 21.712 M218.721 24.487 C 218.882 26.983,220.139 26.841,199.000 26.711 L 181.000 26.600 180.879 24.496 L 180.758 22.392 199.679 22.496 L 218.600 22.600 218.721 24.487 M89.200 73.000 L 89.400 117.800 124.425 118.000 L 159.449 118.200 163.625 122.406 C 171.029 129.865,179.689 134.765,189.000 136.765 C 193.903 137.818,195.526 138.000,200.000 138.000 C 204.474 138.000,206.097 137.818,211.000 136.765 C 220.862 134.647,230.674 128.901,237.759 121.095 L 240.387 118.200 275.293 118.000 L 310.200 117.800 310.400 73.000 L 310.600 28.200 345.094 28.098 L 379.587 27.996 380.139 29.316 C 380.730 30.729,382.766 32.655,384.277 33.229 L 385.200 33.580 385.200 173.590 L 385.200 313.600 318.057 313.600 L 250.914 313.600 250.437 309.900 C 248.724 296.613,244.287 287.162,235.763 278.637 C 226.354 269.228,212.968 263.600,200.000 263.600 C 192.194 263.600,184.709 265.465,177.267 269.264 C 161.368 277.382,151.981 291.150,149.563 309.900 L 149.086 313.600 81.943 313.600 L 14.800 313.600 14.800 173.400 C 14.800 39.475,14.832 33.200,15.509 33.200 C 16.575 33.200,19.224 30.840,19.856 29.328 L 20.413 27.996 54.706 28.098 L 89.000 28.200 89.200 73.000 M18.800 28.840 C 18.800 29.518,16.161 32.000,15.440 32.000 C 14.948 32.000,14.800 31.583,14.800 30.200 L 14.800 28.400 16.800 28.400 C 17.988 28.400,18.800 28.579,18.800 28.840 M149.295 43.100 L 149.400 57.800 199.700 57.902 L 250.000 58.003 250.000 43.202 L 250.000 28.400 279.400 28.400 L 308.800 28.400 308.800 72.600 L 308.800 116.800 199.600 116.800 L 90.400 116.800 90.400 72.600 L 90.400 28.400 119.795 28.400 L 149.190 28.400 149.295 43.100 M249.105 42.153 C 249.181 51.821,249.081 55.862,248.756 56.253 C 248.127 57.010,151.637 57.077,150.880 56.320 C 150.358 55.798,150.154 29.180,150.668 28.665 C 150.816 28.518,173.001 28.443,199.968 28.498 L 249.000 28.600 249.105 42.153 M385.123 30.069 C 384.972 32.115,384.459 32.335,382.898 31.021 C 380.798 29.254,380.916 28.400,383.260 28.400 L 385.246 28.400 385.123 30.069 M198.899 86.861 C 198.262 87.498,199.002 88.800,200.000 88.800 C 200.998 88.800,201.738 87.498,201.101 86.861 C 200.848 86.608,200.352 86.400,200.000 86.400 C 199.648 86.400,199.152 86.608,198.899 86.861 M238.000 118.619 C 238.000 119.394,232.999 124.409,229.800 126.843 C 210.439 141.572,182.642 139.721,165.315 122.550 C 163.492 120.743,162.000 118.980,162.000 118.632 C 162.000 118.060,165.626 118.000,200.000 118.000 C 234.039 118.000,238.000 118.065,238.000 118.619 M209.976 265.822 C 225.114 268.978,237.933 279.096,244.661 293.200 C 247.393 298.927,249.200 305.946,249.200 310.831 L 249.200 313.600 225.395 313.600 C 207.141 313.600,201.404 313.484,200.795 313.104 C 200.162 312.709,199.838 312.709,199.205 313.104 C 198.596 313.484,192.859 313.600,174.605 313.600 L 150.800 313.600 150.800 311.020 C 150.800 306.093,152.646 298.844,155.339 293.200 C 165.166 272.602,187.887 261.216,209.976 265.822 M149.563 318.700 C 150.168 323.462,151.125 327.964,152.007 330.200 C 152.180 330.640,152.734 332.080,153.237 333.400 C 158.989 348.487,172.774 359.729,190.800 364.036 C 193.673 364.722,206.296 364.759,208.900 364.089 C 209.945 363.820,211.655 363.403,212.700 363.161 C 216.605 362.260,222.656 359.667,225.872 357.517 C 226.792 356.903,227.645 356.400,227.769 356.400 C 228.092 356.400,231.419 353.830,234.123 351.491 C 239.067 347.214,244.413 339.562,246.763 333.400 C 247.266 332.080,247.820 330.640,247.993 330.200 C 249.054 327.510,250.800 318.387,250.800 315.535 C 250.800 315.350,280.995 315.243,317.900 315.299 L 385.000 315.400 385.101 455.089 L 385.201 594.779 383.901 595.435 C 381.985 596.402,380.473 597.958,380.188 599.256 L 379.936 600.400 345.170 600.400 L 310.403 600.400 310.302 555.500 L 310.200 510.600 275.072 510.400 C 240.457 510.203,239.937 510.188,239.516 509.400 C 238.724 507.919,232.192 501.818,229.166 499.733 C 207.051 484.500,178.170 488.450,160.694 509.100 L 159.594 510.400 124.397 510.400 L 89.200 510.400 89.200 555.400 L 89.200 600.400 54.780 600.400 L 20.359 600.400 19.815 599.100 C 19.183 597.593,17.939 596.366,16.100 595.437 L 14.800 594.779 14.800 454.990 L 14.800 315.200 81.959 315.200 L 149.117 315.200 149.563 318.700 M249.200 317.774 C 249.200 324.091,246.772 331.674,241.970 340.352 C 239.657 344.532,232.434 352.028,227.400 355.473 C 213.457 365.015,192.560 366.236,177.800 358.373 C 176.700 357.787,175.012 356.878,174.048 356.354 C 161.932 349.759,150.800 331.286,150.800 317.774 L 150.800 315.208 200.000 315.208 L 249.200 315.208 249.200 317.774 M210.563 492.801 C 218.472 494.558,224.974 497.664,231.000 502.563 C 233.752 504.801,238.398 509.680,238.153 510.075 C 237.884 510.512,162.105 510.494,161.835 510.057 C 161.719 509.869,163.017 508.294,164.719 506.557 C 176.683 494.355,194.072 489.137,210.563 492.801 M308.800 556.075 L 308.800 600.400 279.405 600.400 L 250.010 600.400 249.905 585.500 L 249.800 570.600 200.400 570.490 C 173.230 570.430,150.595 570.478,150.100 570.598 L 149.200 570.815 149.200 585.608 L 149.200 600.400 119.800 600.400 L 90.400 600.400 90.400 556.074 L 90.400 511.748 199.600 511.749 L 308.800 511.749 308.800 556.075 M198.772 540.234 C 198.071 541.079,198.771 542.200,200.000 542.200 C 201.229 542.200,201.929 541.079,201.228 540.234 C 200.939 539.885,200.386 539.600,200.000 539.600 C 199.614 539.600,199.061 539.885,198.772 540.234 M248.948 572.500 C 249.264 573.680,249.273 598.945,248.957 599.767 C 248.585 600.737,151.015 600.737,150.643 599.767 C 150.509 599.419,150.400 593.224,150.400 586.000 C 150.400 578.776,150.509 572.581,150.643 572.233 C 150.862 571.661,155.565 571.600,199.796 571.600 L 248.707 571.600 248.948 572.500 M17.969 598.251 C 19.308 599.954,19.065 600.400,16.800 600.400 L 14.800 600.400 14.800 598.633 C 14.800 596.078,16.133 595.918,17.969 598.251 M385.121 598.551 L 385.000 600.200 383.066 600.323 C 380.781 600.469,380.698 599.503,382.826 597.510 C 384.426 596.012,385.278 596.398,385.121 598.551 M218.733 603.141 C 218.806 603.658,218.758 604.513,218.626 605.041 L 218.385 606.000 199.592 606.000 L 180.800 606.000 180.800 603.996 L 180.800 601.992 199.700 602.096 L 218.600 602.200 218.733 603.141 " stroke="none" fill="#e1f0e1" fill-rule="evenodd"></path><path id="path1" d="M2.000 314.400 L 2.000 628.800 199.600 628.800 L 397.200 628.800 397.200 314.400 L 397.200 0.000 199.600 0.000 L 2.000 0.000 2.000 314.400 M220.082 23.900 L 220.200 26.600 303.300 26.701 L 386.401 26.802 386.300 314.189 L 386.200 601.577 303.400 601.829 C 257.860 601.967,220.465 602.163,220.300 602.264 C 220.135 602.365,220.000 603.517,220.000 604.824 L 220.000 607.200 200.233 607.200 C 177.576 607.200,179.200 607.402,179.200 604.581 C 179.200 603.407,179.065 602.365,178.900 602.264 C 178.735 602.164,141.520 601.968,96.200 601.830 L 13.800 601.578 13.700 314.190 L 13.599 26.802 96.300 26.701 L 179.000 26.600 179.124 24.412 C 179.320 20.947,177.677 21.200,200.031 21.200 L 219.963 21.200 220.082 23.900 M180.879 24.496 L 181.000 26.600 199.000 26.711 C 220.139 26.841,218.882 26.983,218.721 24.487 L 218.600 22.600 199.679 22.496 L 180.758 22.392 180.879 24.496 M19.856 29.328 C 19.224 30.840,16.575 33.200,15.509 33.200 C 14.832 33.200,14.800 39.475,14.800 173.400 L 14.800 313.600 81.943 313.600 L 149.086 313.600 149.563 309.900 C 151.254 296.785,155.812 287.086,164.249 278.649 C 173.698 269.201,187.003 263.600,200.000 263.600 C 207.806 263.600,215.291 265.465,222.733 269.264 C 238.727 277.430,248.005 291.039,250.437 309.900 L 250.914 313.600 318.057 313.600 L 385.200 313.600 385.200 173.590 L 385.200 33.580 384.277 33.229 C 382.766 32.655,380.730 30.729,380.139 29.316 L 379.587 27.996 345.094 28.098 L 310.600 28.200 310.400 73.000 L 310.200 117.800 275.293 118.000 L 240.387 118.200 237.759 121.095 C 230.674 128.901,220.862 134.647,211.000 136.765 C 206.097 137.818,204.474 138.000,200.000 138.000 C 195.526 138.000,193.903 137.818,189.000 136.765 C 179.689 134.765,171.029 129.865,163.625 122.406 L 159.449 118.200 124.425 118.000 L 89.400 117.800 89.200 73.000 L 89.000 28.200 54.706 28.098 L 20.413 27.996 19.856 29.328 M14.800 30.200 C 14.800 32.449,15.512 32.568,17.440 30.640 C 19.290 28.790,19.178 28.400,16.800 28.400 L 14.800 28.400 14.800 30.200 M90.400 72.600 L 90.400 116.800 199.600 116.800 L 308.800 116.800 308.800 72.600 L 308.800 28.400 279.400 28.400 L 250.000 28.400 250.000 43.202 L 250.000 58.003 199.700 57.902 L 149.400 57.800 149.295 43.100 L 149.190 28.400 119.795 28.400 L 90.400 28.400 90.400 72.600 M150.668 28.665 C 150.154 29.180,150.358 55.798,150.880 56.320 C 151.637 57.077,248.127 57.010,248.756 56.253 C 249.081 55.862,249.181 51.821,249.105 42.153 L 249.000 28.600 199.968 28.498 C 173.001 28.443,150.816 28.518,150.668 28.665 M381.485 29.205 C 381.741 30.181,383.925 32.091,384.550 31.885 C 384.798 31.804,385.055 30.987,385.123 30.069 L 385.246 28.400 383.260 28.400 C 381.468 28.400,381.295 28.478,381.485 29.205 M201.101 86.861 C 201.738 87.498,200.998 88.800,200.000 88.800 C 199.002 88.800,198.262 87.498,198.899 86.861 C 199.152 86.608,199.648 86.400,200.000 86.400 C 200.352 86.400,200.848 86.608,201.101 86.861 M162.000 118.632 C 162.000 119.684,168.388 125.674,172.300 128.290 C 192.295 141.664,218.024 139.140,235.100 122.128 C 239.693 117.552,243.506 118.000,200.000 118.000 C 165.626 118.000,162.000 118.060,162.000 118.632 M194.200 265.186 C 177.374 267.126,162.747 277.671,155.339 293.200 C 152.646 298.844,150.800 306.093,150.800 311.020 L 150.800 313.600 174.605 313.600 C 192.859 313.600,198.596 313.484,199.205 313.104 C 199.838 312.709,200.162 312.709,200.795 313.104 C 201.404 313.484,207.141 313.600,225.395 313.600 L 249.200 313.600 249.200 310.831 C 249.200 305.946,247.393 298.927,244.661 293.200 C 235.482 273.960,215.295 262.753,194.200 265.186 M14.800 454.990 L 14.800 594.779 16.100 595.437 C 17.939 596.366,19.183 597.593,19.815 599.100 L 20.359 600.400 54.780 600.400 L 89.200 600.400 89.200 555.400 L 89.200 510.400 124.397 510.400 L 159.594 510.400 160.694 509.100 C 178.170 488.450,207.051 484.500,229.166 499.733 C 232.192 501.818,238.724 507.919,239.516 509.400 C 239.937 510.188,240.457 510.203,275.072 510.400 L 310.200 510.600 310.302 555.500 L 310.403 600.400 345.170 600.400 L 379.936 600.400 380.188 599.256 C 380.473 597.958,381.985 596.402,383.901 595.435 L 385.201 594.779 385.101 455.089 L 385.000 315.400 317.900 315.299 C 280.995 315.243,250.800 315.350,250.800 315.535 C 250.800 318.387,249.054 327.510,247.993 330.200 C 247.820 330.640,247.266 332.080,246.763 333.400 C 244.413 339.562,239.067 347.214,234.123 351.491 C 231.419 353.830,228.092 356.400,227.769 356.400 C 227.645 356.400,226.792 356.903,225.872 357.517 C 222.656 359.667,216.605 362.260,212.700 363.161 C 211.655 363.403,209.945 363.820,208.900 364.089 C 206.296 364.759,193.673 364.722,190.800 364.036 C 172.774 359.729,158.989 348.487,153.237 333.400 C 152.734 332.080,152.180 330.640,152.007 330.200 C 151.125 327.964,150.168 323.462,149.563 318.700 L 149.117 315.200 81.959 315.200 L 14.800 315.200 14.800 454.990 M150.800 317.774 C 150.800 331.286,161.932 349.759,174.048 356.354 C 180.346 359.782,182.640 360.778,186.600 361.807 C 206.212 366.903,225.252 360.950,237.952 345.752 C 241.003 342.100,241.695 341.028,244.374 335.800 C 247.107 330.464,249.200 322.648,249.200 317.774 L 249.200 315.208 200.000 315.208 L 150.800 315.208 150.800 317.774 M195.000 491.851 C 186.406 492.784,177.151 496.368,170.607 501.297 C 167.338 503.759,161.529 509.561,161.835 510.057 C 162.105 510.494,237.884 510.512,238.153 510.075 C 238.599 509.355,231.414 502.574,227.130 499.670 C 218.738 493.983,205.357 490.727,195.000 491.851 M90.400 556.074 L 90.400 600.400 119.800 600.400 L 149.200 600.400 149.200 585.608 L 149.200 570.815 150.100 570.598 C 150.595 570.478,173.230 570.430,200.400 570.490 L 249.800 570.600 249.905 585.500 L 250.010 600.400 279.405 600.400 L 308.800 600.400 308.800 556.075 L 308.800 511.749 199.600 511.749 L 90.400 511.748 90.400 556.074 M201.228 540.234 C 201.929 541.079,201.229 542.200,200.000 542.200 C 198.771 542.200,198.071 541.079,198.772 540.234 C 199.061 539.885,199.614 539.600,200.000 539.600 C 200.386 539.600,200.939 539.885,201.228 540.234 M150.643 572.233 C 150.509 572.581,150.400 578.776,150.400 586.000 C 150.400 593.224,150.509 599.419,150.643 599.767 C 151.015 600.737,248.585 600.737,248.957 599.767 C 249.273 598.945,249.264 573.680,248.948 572.500 L 248.707 571.600 199.796 571.600 C 155.565 571.600,150.862 571.661,150.643 572.233 M15.300 596.687 C 15.003 596.794,14.800 597.582,14.800 598.633 L 14.800 600.400 16.800 600.400 C 19.065 600.400,19.308 599.954,17.969 598.251 C 16.998 597.017,16.004 596.435,15.300 596.687 M382.826 597.510 C 380.698 599.503,380.781 600.469,383.066 600.323 L 385.000 600.200 385.121 598.551 C 385.278 596.398,384.426 596.012,382.826 597.510 M180.800 603.996 L 180.800 606.000 199.592 606.000 L 218.385 606.000 218.626 605.041 C 218.758 604.513,218.806 603.658,218.733 603.141 L 218.600 602.200 199.700 602.096 L 180.800 601.992 180.800 603.996 " stroke="none" fill="#048404" fill-rule="evenodd"></path></g></svg>