<?xml version="1.0" standalone="yes"?>
<svg xmlns="http://www.w3.org/2000/svg" width="450" height="120">
<path style="fill:#ffffff; stroke:none;" d="M58 49L58 43L29 43L29 34L58 34L58 19L13 19L13 84L29 84L29 59L47 59C39.3989 77.2861 41.3328 100.928 63 108.754C71.688 111.892 81.6106 111.585 89.9992 107.676C94.4209 105.616 97.9444 101.351 103.004 101.093C132.961 99.5689 163.071 102 193 102C203.694 102 217.639 104.392 227.981 101.682C234.565 99.9566 232.169 92.9083 233.649 88C235.228 82.7641 251.247 65.9988 240.852 61.6073C235.561 59.3721 226.539 63.4262 221 64.0502C203.634 66.0065 185.446 68.7819 168 68.9961C147.974 69.2421 128.063 72 108 72L100 54C120.498 50.8144 141.635 38.5513 161 31.1921C166.931 28.9383 179.706 22.2875 185.957 25.1181C193.519 28.5425 192.795 39.2955 194 46L150 53L150 55L175 55.7145L211 51.0934L242 59.4823L284 63C279.236 75.37 279.563 84.9627 285 97C276.17 97.6969 254.491 96.13 249 104L263 104C275.95 94.1892 291.303 107.06 303 110.56C315.19 114.208 325.258 110.652 336 105C328.056 89.3563 312.114 100.396 301.214 89.5602C291.516 79.9193 299.908 62.8051 313 62.1451C321.92 61.6954 323.571 69.4262 330.325 72.3966C333.566 73.8218 337.513 72.5363 340.91 73.2986C346.113 74.4662 350.499 77.2593 356 78L345.699 95.3966L336 101L343 101L338 112L355.621 111.397L367.001 105.005L388.96 105.318L397.184 111.397L414 112L411 104L443 104C439.291 91.4717 412.09 90.9424 402.015 84.9144C391.011 78.3298 383.38 56.9206 377 46L375 46C372.409 52.1896 364.368 71.6459 356.985 72.2184C346.2 73.0545 345.341 64.7262 339.957 58.0903C335.025 52.0117 327.795 47.4497 320 46.3009C312.397 45.1805 303.729 46.0778 297 49.9552C292.418 52.5954 288.612 58.0516 283 58.1227C253.554 58.4957 225.254 46.0032 196 46L194 16C160.512 16.7134 132.088 42.4405 100 49.5278C94.2981 50.7872 89.4506 46.8336 84 45.669C75.2517 43.7998 65.8802 44.8477 58 49z"/>
<path style="fill:#010101; stroke:none;" d="M72 61.4684C50.938 65.5177 57.08 98.4593 78 94.4668C100.076 90.2537 94.1171 57.2162 72 61.4684M108 74C108 83.428 107.382 92.1805 100 99L100 100L179 98.0394L224 96C225.801 82.6873 235.863 78.0076 241 67L225 69.6991L196 71.8302L108 74M376 78L370 89L382 89L376 78M405 93C407.847 102.473 419.631 100.999 428 101L428 100L405 93z"/>

</svg>
