<svg
   xmlns:dc="http://purl.org/dc/elements/1.1/"
   xmlns:cc="http://creativecommons.org/ns#"
   xmlns:rdf="http://www.w3.org/1999/02/22-rdf-syntax-ns#"
   xmlns:svg="http://www.w3.org/2000/svg"
   xmlns="http://www.w3.org/2000/svg"
   xmlns:sodipodi="http://sodipodi.sourceforge.net/DTD/sodipodi-0.dtd"
   xmlns:inkscape="http://www.inkscape.org/namespaces/inkscape"
   width="145.22026mm"
   height="37.059013mm"
   viewBox="0 0 145.22026 37.059013"
   version="1.1"
   id="svg8"
   inkscape:version="0.92.3 (2405546, 2018-03-11)"
   sodipodi:docname="foca.svg">
  <defs
     id="defs2" />
  <sodipodi:namedview
     id="base"
     pagecolor="#ffffff"
     bordercolor="#666666"
     borderopacity="1.0"
     inkscape:pageopacity="0.0"
     inkscape:pageshadow="2"
     inkscape:zoom="0.35"
     inkscape:cx="-257.85374"
     inkscape:cy="188.16783"
     inkscape:document-units="mm"
     inkscape:current-layer="layer1"
     showgrid="false"
     inkscape:window-width="1920"
     inkscape:window-height="1001"
     inkscape:window-x="-9"
     inkscape:window-y="-9"
     inkscape:window-maximized="1" />
  <metadata
     id="metadata5">
    <rdf:RDF>
      <cc:Work
         rdf:about="">
        <dc:format>image/svg+xml</dc:format>
        <dc:type
           rdf:resource="http://purl.org/dc/dcmitype/StillImage" />
        <dc:title></dc:title>
      </cc:Work>
    </rdf:RDF>
  </metadata>
  <g
     inkscape:label="Layer 1"
     inkscape:groupmode="layer"
     id="layer1"
     transform="translate(-28.536302,-161.56039)">
    <path

       d="m 42.557103,198.473 c -2.112007,-0.51826 -4.028283,-1.78453 -5.52165,-3.64866 -0.278639,-0.34782 -0.506617,-0.69326 -0.506617,-0.76764 0,-0.0744 -0.04572,-0.15557 -0.101599,-0.18041 -0.05588,-0.0248 -0.242585,-0.34995 -0.4149,-0.72248 -0.172314,-0.37254 -0.369288,-0.78135 -0.43772,-0.90849 -0.06843,-0.12713 -0.164053,-0.479 -0.212494,-0.78194 -0.04844,-0.30292 -0.141026,-0.58351 -0.205748,-0.62351 -0.06472,-0.04 -0.117673,-0.95304 -0.117673,-2.029 v -1.95626 h -3.2512 -3.2512 v -8.06027 -8.06027 h 5.892803 5.892798 v 4.44782 c 0,2.44631 0.03407,4.48189 0.07571,4.52354 0.04164,0.0416 0.392163,-0.0411 0.778934,-0.18398 1.27432,-0.47061 2.651819,-0.68872 3.885612,-0.61525 1.257027,0.0749 2.401162,0.26739 2.796966,0.47066 0.138659,0.0712 0.492866,0.23316 0.787126,0.3599 1.501938,0.64688 3.477799,2.42349 4.274048,3.84305 0.11176,0.19925 0.23368,0.39274 0.270933,0.43 0.146687,0.14669 0.537433,1.03795 0.623602,1.4224 0.0501,0.22352 0.144301,0.47439 0.209337,0.5575 0.06504,0.0831 0.176003,0.75726 0.246592,1.49812 0.199497,2.09378 -0.05636,3.9173 -0.76648,5.46278 -0.282439,0.61469 -1.016971,1.76829 -1.316877,2.06821 -0.222656,0.22264 0.917621,0.23472 22.17626,0.23472 h 22.410987 l 0.35709,-0.51528 0.357091,-0.51528 v -4.89547 -4.89547 l -0.819433,-0.63054 c -0.627951,-0.4832 -0.89471,-0.61164 -1.141578,-0.54968 -0.17718,0.0445 -1.103835,0.17532 -2.059234,0.2908 -0.955398,0.11545 -2.438129,0.29936 -3.294955,0.40867 -2.632209,0.33579 -4.736877,0.60172 -6.4008,0.80873 -2.899735,0.36079 -4.891386,0.60901 -6.536267,0.81463 -0.89408,0.11175 -2.357121,0.29409 -3.2512,0.40521 -0.89408,0.1111 -2.35712,0.29562 -3.2512,0.41004 -0.89408,0.11441 -2.204721,0.2658 -2.912533,0.3364 -0.707814,0.0706 -1.530773,0.18672 -1.8288,0.258 -0.298028,0.0713 -1.088617,0.16928 -1.756866,0.21778 -0.66825,0.0485 -1.33881,0.13472 -1.490133,0.19159 -0.151324,0.0569 -0.945695,0.13688 -1.765268,0.1778 -0.819573,0.0409 -1.337733,0.049 -1.151466,0.0178 0.849273,-0.14187 5.14202,-0.82933 5.825065,-0.93285 1.293245,-0.19602 3.186276,-0.49274 4.402668,-0.69009 0.745067,-0.12089 1.872827,-0.30105 2.506133,-0.40037 1.444452,-0.22652 3.647248,-0.57361 5.147733,-0.81111 0.633307,-0.10024 1.791547,-0.28215 2.573867,-0.40422 0.78232,-0.12208 2.00152,-0.31236 2.709333,-0.42286 0.707813,-0.11051 1.835573,-0.28845 2.506134,-0.39544 0.670559,-0.10699 1.8288,-0.28987 2.573866,-0.4064 0.745066,-0.11653 1.933786,-0.30401 2.6416,-0.41663 0.707813,-0.11262 1.683173,-0.26086 2.167467,-0.32944 0.484293,-0.0686 1.154853,-0.18325 1.490133,-0.25484 0.33528,-0.0716 0.919367,-0.16521 1.297971,-0.20807 0.681131,-0.0771 0.700734,-0.0686 1.863991,0.80884 l 1.175619,0.88675 -0.03518,6.38352 -0.03518,6.38349 -0.880534,0.32603 c -0.484293,0.17932 -1.154853,0.40831 -1.490133,0.50888 -0.496131,0.1488 -4.946638,0.19984 -23.909867,0.27416 -18.222697,0.0714 -23.359308,0.12809 -23.5712,0.25996 -0.283007,0.17615 -1.231677,0.50084 -2.183183,0.74722 -0.677831,0.17552 -3.300257,0.16074 -4.048283,-0.0229 z m 3.51536,-5.12971 c 0.07078,-0.067 0.217843,-0.12175 0.326806,-0.12175 0.379916,0 1.507757,-0.84286 1.96945,-1.47181 1.232115,-1.67847 1.345016,-3.59091 0.324975,-5.50472 -0.270477,-0.50747 -1.320596,-1.55787 -1.557459,-1.55787 -0.09706,0 -0.176466,-0.0582 -0.176466,-0.12932 0,-0.0711 -0.214032,-0.16949 -0.47563,-0.21856 -0.261596,-0.049 -0.509034,-0.14328 -0.549861,-0.20935 -0.09821,-0.1589 -2.29872,-0.15513 -2.600081,0.005 -0.129376,0.0685 -0.502316,0.25459 -0.828757,0.41351 -1.243183,0.60519 -2.124318,1.85432 -2.452311,3.47651 -0.143255,0.7085 -0.135498,0.96087 0.05258,1.71082 0.256862,1.02422 0.550897,1.65839 0.987713,2.13028 0.171716,0.18551 0.31221,0.38363 0.31221,0.44027 0,0.0566 0.05782,0.10298 0.128487,0.10298 0.07066,0 0.288235,0.14806 0.483483,0.329 0.307251,0.28475 1.080213,0.59199 2.02963,0.80675 0.392995,0.0889 1.874126,-0.0582 2.025227,-0.20119 z m 83.386507,3.81296 c -0.88666,-0.16295 -1.73552,-0.46375 -2.50614,-0.88807 -0.80819,-0.445 -1.96426,-1.29775 -1.96426,-1.44888 0,-0.0592 -0.0762,-0.1092 -0.16934,-0.11112 -0.30685,-0.006 -1.70932,-2.03989 -2.33325,-3.38317 -0.75834,-1.6327 -0.93951,-4.35814 -0.41985,-6.31643 0.429,-1.61672 1.4876,-3.41333 2.68375,-4.55477 0.34944,-0.33347 0.45799,-0.508 0.31594,-0.508 -0.11901,0 -0.32225,-0.0594 -0.45162,-0.13196 -0.12938,-0.0726 -0.60099,-0.19263 -1.04803,-0.26678 -0.44704,-0.0742 -1.27,-0.22687 -1.8288,-0.3394 -0.5588,-0.11253 -1.44926,-0.2883 -1.9788,-0.39061 -0.52953,-0.10232 -1.04492,-0.23678 -1.14528,-0.29882 -0.10037,-0.062 -1.16064,-0.1555 -2.35614,-0.20772 -4.55386,-0.19893 -8.18842,-0.40011 -9.62432,-0.53275 -0.81957,-0.0757 -2.72457,-0.17714 -4.23333,-0.22539 -1.67157,-0.0535 -2.743198,-0.14045 -2.743198,-0.22263 0,-0.23008 16.715408,-0.0119 18.287998,0.23875 1.2512,0.1994 2.21574,0.36163 4.8768,0.82026 0.70782,0.12198 1.68318,0.27677 2.16747,0.34394 0.48429,0.0672 1.02352,0.15686 1.19826,0.19932 0.18602,0.0452 0.55104,-0.0356 0.88054,-0.19481 1.71101,-0.8269 3.8556,-1.12517 5.95117,-0.82771 0.65076,0.0924 1.21695,0.22258 1.2582,0.28933 0.0413,0.0667 0.1781,0.122 0.30409,0.12277 0.12598,0.002 0.50339,0.15007 0.83867,0.33177 0.33527,0.18169 0.73152,0.38916 0.88053,0.46104 0.14902,0.0718 0.77792,0.56266 1.39756,1.09064 0.87963,0.7495 1.2205,0.95996 1.55478,0.95996 0.23548,0 0.88673,0.0883 1.44724,0.1961 0.5605,0.10786 1.62869,0.29458 2.37376,0.41493 0.74507,0.12035 1.62899,0.27706 1.96427,0.34823 0.33528,0.0712 1.00584,0.18374 1.49013,0.25015 1.30421,0.17882 2.69715,0.40832 3.38667,0.55799 0.33528,0.0728 1.03632,0.19362 1.55786,0.26854 0.52155,0.0749 1.49691,0.22921 2.16747,0.34287 0.67056,0.11367 1.7526,0.2955 2.40453,0.40406 0.65194,0.10856 1.73398,0.28883 2.40454,0.40059 0.67055,0.11176 1.76784,0.29464 2.4384,0.4064 0.67055,0.11176 1.76784,0.29464 2.4384,0.4064 0.67055,0.11176 1.75259,0.28935 2.40453,0.39463 0.65193,0.10528 1.39868,0.24959 1.65947,0.32069 0.7199,0.19628 1.93098,0.58169 2.23519,0.71133 0.14902,0.0635 0.4823,0.15722 0.74063,0.20829 0.25831,0.051 0.56312,0.14031 0.67733,0.19833 0.1142,0.0581 0.77153,0.27649 1.46071,0.48549 l 1.25307,0.38003 v 0.51327 c 0,0.36593 -0.0583,0.51328 -0.2032,0.51328 -0.11176,0 -0.2032,0.054 -0.2032,0.12009 0,0.0661 -0.16764,0.15235 -0.37253,0.19176 -0.2049,0.0394 -0.73621,0.19996 -1.18069,0.35676 -0.4445,0.15677 -1.11506,0.34016 -1.49014,0.40752 -0.37508,0.0674 -0.92582,0.18281 -1.22384,0.25659 -0.29803,0.0738 -1.02955,0.23818 -1.6256,0.36536 -0.59606,0.12717 -1.4534,0.31528 -1.90519,0.41803 -0.4518,0.10275 -0.9888,0.18682 -1.19333,0.18682 -0.21342,0 -0.3362,0.0578 -0.28815,0.13547 0.0533,0.0862 1.83021,0.13546 4.88479,0.13546 h 4.80108 v 2.91254 2.91253 h -9.5504 -9.5504 v -2.032 c 0,-1.67892 -0.0339,-2.032 -0.1952,-2.032 -0.10736,0 -0.22854,0.0539 -0.26928,0.11984 -0.0408,0.0659 -0.35808,0.16242 -0.70524,0.21448 -0.34714,0.052 -0.72889,0.14637 -0.84833,0.20959 -0.22099,0.11697 -0.9488,0.31503 -2.04595,0.55677 -0.33528,0.0738 -0.73152,0.18698 -0.88054,0.25134 -0.14901,0.0644 -0.45381,0.15515 -0.67733,0.20174 -0.22352,0.0466 -0.50477,0.11376 -0.62501,0.14928 -0.168,0.0496 -0.31857,-0.19487 -0.65049,-1.0563 -0.23755,-0.61648 -0.48695,-1.22235 -0.55426,-1.34638 -0.17116,-0.31542 0.0537,-0.45389 1.01696,-0.62628 0.44704,-0.08 1.23952,-0.24374 1.76107,-0.36386 0.52154,-0.12012 1.28355,-0.28479 1.69333,-0.36594 0.40979,-0.0811 0.78986,-0.21568 0.84459,-0.29897 0.0547,-0.0833 0.0995,-1.1268 0.0995,-2.31891 0,-1.19211 -0.0448,-2.23472 -0.0995,-2.31691 -0.0938,-0.14088 -0.55374,-0.22387 -3.68939,-0.66579 -0.70781,-0.0998 -1.95749,-0.28054 -2.77707,-0.40173 -2.50802,-0.37089 -4.30595,-0.62787 -4.9283,-0.70441 l -0.59337,-0.073 0.0889,0.59077 0.0889,0.59078 -0.98567,-0.0318 c -0.54212,-0.0175 -1.70528,-0.10321 -2.58482,-0.19043 -1.52436,-0.15117 -1.6079,-0.17548 -1.78587,-0.51964 -0.29545,-0.57132 -1.11665,-1.29502 -1.94687,-1.7157 -0.68702,-0.34812 -0.89392,-0.38626 -2.05103,-0.37808 -0.98036,0.007 -1.41637,0.0714 -1.83032,0.27094 -1.36314,0.65683 -2.14432,1.5015 -2.67383,2.89116 -0.44257,1.16148 -0.21377,3.57693 0.39666,4.18754 0.0984,0.0985 0.17896,0.22612 0.17896,0.2837 0,0.24032 1.18068,1.24737 1.87327,1.59779 0.66265,0.33528 0.89328,0.3779 2.04455,0.3779 1.37486,0 1.9137,-0.15895 2.81261,-0.82969 0.23717,-0.17698 0.50272,-0.32177 0.5901,-0.32177 0.13593,0 0.93568,0.56541 1.43434,1.01405 0.084,0.0756 0.28917,0.22885 0.45594,0.34061 0.16677,0.11176 0.44293,0.30988 0.6137,0.44027 0.17077,0.13039 0.34311,0.23707 0.38297,0.23707 0.0398,0 0.28852,0.12746 0.55256,0.28324 0.60837,0.35895 0.53663,0.51506 -0.72374,1.57478 -0.9035,0.75967 -2.00645,1.39015 -3.26297,1.86526 -0.69643,0.26333 -3.72423,0.39834 -4.74133,0.21142 z m 28.56408,-6.97722 c 1.37013,-0.301 2.29247,-0.47091 3.37392,-0.62153 0.54112,-0.0754 1.13945,-0.1962 1.32961,-0.2685 0.19016,-0.0723 0.52738,-0.13146 0.74937,-0.13146 0.22197,0 0.7819,-0.0869 1.24425,-0.19304 0.46234,-0.10617 1.29784,-0.268 1.85664,-0.3596 0.99711,-0.16346 1.00844,-0.16977 0.60959,-0.33972 -0.22351,-0.0952 -0.74167,-0.21013 -1.15146,-0.25533 -0.40979,-0.0452 -0.95844,-0.14327 -1.2192,-0.21794 -0.26077,-0.0746 -0.87037,-0.19289 -1.35467,-0.2627 -0.48429,-0.0698 -1.39869,-0.22327 -2.032,-0.34099 -0.6333,-0.11772 -1.63915,-0.29946 -2.2352,-0.40386 -0.59605,-0.1044 -1.38853,-0.24958 -1.76107,-0.32265 -0.37253,-0.073 -0.84497,-0.13645 -1.04986,-0.14089 l -0.37253,-0.008 v 2.032 2.032 h 0.55634 c 0.306,0 0.96131,-0.089 1.45627,-0.19771 z m -99.445435,-2.3365 c 0.168509,-0.0324 0.412349,-0.0312 0.541866,0.002 0.12952,0.0339 -0.0084,0.0604 -0.306378,0.059 -0.298027,-0.002 -0.403996,-0.0293 -0.235488,-0.0616 z m -2.104946,-1.90232 c -0.661605,-1.25383 -0.781429,-1.45899 -0.8769,-1.50143 -0.05588,-0.0248 -0.1016,-0.10781 -0.1016,-0.18439 0,-0.0766 -0.3048,-0.64384 -0.677333,-1.26058 -0.372533,-0.61675 -0.677333,-1.1891 -0.677333,-1.27189 0,-0.0828 -0.06096,-0.15051 -0.135467,-0.15051 -0.0745,0 -0.135467,-0.0869 -0.135467,-0.19306 0,-0.15285 1.873756,-1.43254 2.09756,-1.43254 0.03077,0 0.226728,-0.15916 0.435461,-0.35369 0.208732,-0.19453 0.501433,-0.4088 0.650446,-0.47614 0.149013,-0.0674 0.453813,-0.2428 0.677333,-0.38989 0.22352,-0.14709 0.497618,-0.31087 0.609107,-0.36396 0.111489,-0.053 0.798003,-0.45 1.525585,-0.88203 0.727582,-0.43202 1.383124,-0.78549 1.45676,-0.78549 0.07363,0 0.133882,-0.061 0.133882,-0.13547 0,-0.0745 0.06742,-0.13547 0.149814,-0.13547 0.0824,0 0.807463,-0.39624 1.611252,-0.88053 0.803791,-0.48429 1.528854,-0.88053 1.611251,-0.88053 0.0824,0 0.149816,-0.0538 0.149816,-0.11967 0,-0.0658 0.10668,-0.15655 0.237066,-0.20163 0.130387,-0.045 0.419947,-0.20367 0.643467,-0.35245 0.22352,-0.14877 0.55756,-0.33618 0.74231,-0.41645 0.18475,-0.0803 0.367629,-0.1891 0.4064,-0.24183 0.03877,-0.0527 0.22289,-0.16959 0.409157,-0.25966 0.457012,-0.221 1.299272,-0.70894 1.995441,-1.15603 0.315173,-0.20242 0.601476,-0.36802 0.636231,-0.36802 0.03475,0 0.821817,-0.4572 1.749029,-1.016 0.927211,-0.5588 1.753428,-1.016 1.836036,-1.016 0.08261,0 0.150196,-0.061 0.150196,-0.13546 0,-0.0745 0.06742,-0.13547 0.149816,-0.13547 0.127111,0 1.126396,-0.57567 3.507784,-2.02078 0.260774,-0.15824 0.641773,-0.36078 0.846667,-0.4501 0.204893,-0.0893 0.372533,-0.20998 0.372533,-0.26816 0,-0.0582 0.06742,-0.10576 0.149816,-0.10576 0.0824,0 0.798676,-0.38992 1.591732,-0.8665 0.793055,-0.47658 1.746719,-1.03354 2.119252,-1.23771 0.372533,-0.20419 0.921173,-0.53054 1.2192,-0.72524 0.298027,-0.19471 0.784777,-0.47594 1.081666,-0.62495 0.29689,-0.14901 0.621286,-0.34713 0.720876,-0.44027 0.09959,-0.0931 0.268162,-0.16933 0.374601,-0.16933 0.106437,0 0.193524,-0.061 0.193524,-0.13547 0,-0.0745 0.06679,-0.13546 0.148421,-0.13546 0.08163,0 0.327636,-0.12761 0.546675,-0.28359 0.21904,-0.15596 0.483183,-0.25098 0.586988,-0.21115 0.200945,0.0771 1.291782,1.64691 1.291782,1.85898 0,0.0692 0.04699,0.12589 0.10443,0.12589 0.05743,0 0.254281,0.27432 0.437437,0.6096 0.183155,0.33528 0.380001,0.6096 0.437436,0.6096 0.05743,0 0.104431,0.0634 0.104431,0.14095 0,0.13325 0.513688,0.93257 0.692941,1.07825 0.04584,0.0373 0.126145,0.20489 0.178462,0.37253 0.05231,0.16764 0.151972,0.3048 0.221459,0.3048 0.06949,0 0.126338,0.0634 0.126338,0.14095 0,0.0775 0.11669,0.30612 0.259311,0.50801 0.585413,0.82863 2.377978,3.62509 2.536428,3.95691 0.05337,0.11176 0.131958,0.23368 0.174646,0.27093 0.184664,0.16115 0.687215,0.94967 0.687215,1.07825 0,0.0775 0.06096,0.14095 0.135466,0.14095 0.0745,0 0.135466,0.0634 0.135466,0.14095 0,0.0775 0.11481,0.30612 0.255132,0.50801 0.140321,0.20187 0.606327,0.91568 1.035569,1.58624 0.42924,0.67056 1.050898,1.63108 1.38146,2.13449 0.330566,0.50341 0.58058,0.97662 0.555589,1.05159 -0.02499,0.075 -0.807177,0.61951 -1.738193,1.21009 -0.931016,0.59057 -1.766384,1.13843 -1.856372,1.21746 -0.08999,0.079 -0.222795,0.14371 -0.295124,0.14371 -0.07233,0 -0.217416,0.0859 -0.322414,0.1909 -0.104998,0.105 -0.247558,0.15072 -0.316799,0.1016 -0.06924,-0.0491 -1.157023,-1.64379 -2.417296,-3.5437 -1.260274,-1.89992 -2.341267,-3.47472 -2.402211,-3.49956 -0.06094,-0.0248 -0.110807,-0.10351 -0.110807,-0.17482 0,-0.15194 -0.562819,-0.97844 -0.7112,-1.04438 -0.05588,-0.0248 -0.1016,-0.10351 -0.1016,-0.17482 0,-0.11784 -0.504377,-0.90405 -0.684485,-1.06696 -0.04118,-0.0373 -0.220848,-0.31157 -0.399248,-0.6096 -0.1784,-0.29802 -0.36128,-0.57235 -0.4064,-0.6096 -0.04512,-0.0373 -0.228936,-0.31157 -0.40848,-0.6096 -0.179546,-0.29802 -0.400575,-0.61806 -0.491173,-0.7112 -0.197671,-0.2032 -0.455014,-0.22234 -0.455014,-0.0339 0,0.0745 -0.06343,0.13547 -0.140952,0.13547 -0.128586,0 -0.917092,0.50255 -1.078248,0.68722 -0.03726,0.0427 -0.160979,0.11182 -0.274945,0.15362 -0.113966,0.0418 -0.884756,0.52504 -1.712865,1.07386 -0.828109,0.54881 -1.609136,1.05935 -1.735613,1.13454 -0.215083,0.12787 -0.213819,0.16505 0.01954,0.57488 0.137221,0.24099 0.295211,0.43856 0.351091,0.43903 0.05588,4e-4 0.1016,0.0643 0.1016,0.1418 0,0.16039 0.556967,0.98713 0.7112,1.05567 0.05588,0.0248 0.1016,0.1035 0.1016,0.17482 0,0.11218 0.482317,0.87194 0.677334,1.06696 0.119817,0.11982 0.403217,0.60075 0.538837,0.9144 0.07249,0.16764 0.187149,0.3048 0.254811,0.3048 0.251736,0 0.291048,0.60575 0.0509,0.78438 -0.129224,0.0961 -0.357494,0.27902 -0.507263,0.4064 -0.149773,0.12739 -0.622213,0.47035 -1.049868,0.76214 -0.427656,0.29179 -0.777556,0.58134 -0.777556,0.64347 0,0.0622 -0.08199,0.11294 -0.182203,0.11294 -0.100213,0 -0.292541,0.12192 -0.427397,0.27095 -0.134855,0.149 -0.288592,0.27092 -0.341636,0.27092 -0.09621,0 -1.017747,-1.34351 -1.626076,-2.37067 -0.176506,-0.29802 -0.36164,-0.57234 -0.411412,-0.6096 -0.04978,-0.0373 -0.133296,-0.20489 -0.185613,-0.37253 -0.05231,-0.16764 -0.151972,-0.3048 -0.221458,-0.3048 -0.06949,0 -0.126337,-0.0567 -0.126337,-0.12607 0,-0.33225 -0.630514,-1.08205 -0.9144,-1.0874 -0.167641,-0.003 -0.3048,0.0552 -0.3048,0.12975 0,0.0745 -0.06989,0.13545 -0.155312,0.13545 -0.08542,0 -0.476752,0.21337 -0.869624,0.47414 -0.392872,0.26077 -0.780181,0.47413 -0.860689,0.47413 -0.08051,0 -0.146375,0.061 -0.146375,0.13548 0,0.0745 -0.08709,0.13545 -0.193524,0.13545 -0.106439,0 -0.275933,0.0762 -0.376657,0.16934 -0.251303,0.23237 -0.937104,0.64413 -1.224753,0.73535 -0.130386,0.0414 -0.237067,0.12903 -0.237067,0.19485 0,0.0658 -0.08709,0.11966 -0.193523,0.11966 -0.106439,0 -0.275161,0.0762 -0.374937,0.16934 -0.09978,0.0931 -0.469894,0.32045 -0.822477,0.50517 -0.352585,0.18471 -0.641062,0.37622 -0.641062,0.42558 0,0.0494 -0.1524,0.12799 -0.338667,0.17474 -0.186267,0.0467 -0.338667,0.1448 -0.338667,0.21789 0,0.073 -0.06822,0.13288 -0.151613,0.13288 -0.187835,0 -1.795796,0.96112 -1.857809,1.11047 -0.02484,0.0598 -0.105941,0.10873 -0.180234,0.10873 -0.0743,0 -0.889237,0.45721 -1.810987,1.016 -0.921751,0.5588 -1.734726,1.016 -1.806611,1.016 -0.07189,0 -0.151021,0.049 -0.175856,0.10875 -0.05983,0.14409 -1.666749,1.11045 -1.846521,1.11045 -0.07718,0 -0.160644,0.049 -0.185479,0.10875 -0.06202,0.14934 -1.669975,1.11045 -1.85781,1.11045 -0.08339,0 -0.151613,0.0543 -0.151613,0.12079 0,0.0664 -0.1524,0.15903 -0.338666,0.20577 -0.186267,0.0467 -0.338667,0.1448 -0.338667,0.21789 0,0.0731 -0.06658,0.1329 -0.147966,0.1329 -0.08138,0 -0.302963,0.12191 -0.492403,0.27092 -0.539036,0.42401 -0.91552,0.3512 -1.225931,-0.23707 z"
       id="path826"
       inkscape:connector-curvature="0" />
  </g>
</svg>
