<?xml version="1.0" standalone="yes"?>
<svg xmlns="http://www.w3.org/2000/svg" width="450" height="120">
<path style="fill:#010101; stroke:none;" d="M0 0L0 120L450 120L450 0L0 0z"/>
<path style="fill:#030303; stroke:none;" d="M188 17L189 18L188 17M194.333 22.6667L194.667 23.3333L194.333 22.6667M182 23L183 24L182 23M186 23L187 24L186 23M177 24L178 25L177 24M188 24L189 25L188 24M174 25L175 26L174 25M159 26L160 27L159 26M157 27L158 28L157 27M31 33L32 34L31 33M33 33L34 34L33 33M36 33L37 34L36 33M44.6667 33.3333L45.3333 33.6667L44.6667 33.3333M47 33L48 34L47 33M51 33L52 34L51 33M53 33L54 34L53 33M144 33L145 34L144 33M120 43L121 44L120 43M56 44L57 45L56 44M76 45L77 46L76 45M115 45L116 46L115 45M67 46L68 47L67 46M112 46L113 47L112 46M86 47L87 48L86 47M307 47L308 48L307 47M375 48L376 49L375 48M104 49L105 50L104 49M110 49L111 50L110 49M182 49L183 50L182 49M300 49L301 50L300 49M212 50L213 51L212 50M171 51L172 52L171 51M218 51L219 52L218 51M223 52L224 53L223 52M99 53L100 54L99 53M157 54L158 55L157 54M174 54L175 55L174 54M245 54L246 55L245 54M380 54L381 55L380 54M254 55L255 56L254 55M263 56L264 57L263 56M271 57L272 58L271 57M29 58L29 59L48 59L29 58M339 59L340 60L339 59M70 60L71 61L70 60M266 60L267 61L266 60M47 61L48 62L47 61M317 61L318 62L317 61M341 62L342 63L341 62M64 63L63 65L64 63M231 63L232 64L231 63M226 64L227 65L226 64M88 65L89 66L88 65M325 65L326 66L325 65M208.667 66.3333L209.333 66.6667L208.667 66.3333M343 66L344 67L343 66M197 67L198 68L197 67M327 67L328 68L327 67M183 68L184 69L183 68M225 68L226 69L225 68M169 69L170 70L169 69M344 69L345 70L344 69M153 70L154 71L153 70M198 70L199 71L198 70M329 70L330 71L329 70M172 71L173 72L172 71M175.667 71.3333L176.333 71.6667L175.667 71.3333M390 71L391 72L390 71M43 72L44 73L43 72M123 72L124 73L123 72M131 72L132 73L131 72M133 72L133 73L136 73L133 72M138.667 72.3333L139.333 72.6667L138.667 72.3333M141 72L142 73L141 72M361 72L362 73L361 72M356 73L357 74L356 73M391 73L392 74L391 73M107 74L108 75L107 74M345 74L346 75L345 74M57 76L58 77L57 76M352 76L353 77L352 76M57 79L58 80L57 79M236 79L237 80L236 79M378 79L379 80L378 79M373 80L374 81L373 80M58 83L59 84L58 83M281 83L282 84L281 83M91 85L92 86L91 85M60 87L61 88L60 87M369 87L370 88L369 87M226 88L227 89L226 88M298 88L299 89L298 88M104 91L105 92L104 91M403 91L404 92L403 91M417 91L418 92L417 91M103 93L104 94L103 93M412 94L413 95L412 94M48 95L49 96L48 95M286 96L287 97L286 96M219 97L220 98L219 97M203 98L204 99L203 98M279.667 98.3333L280.333 98.6667L279.667 98.3333M51 99L53 101L51 99M172 99L172 100L176 100L172 99M135.667 100.333L136.333 100.667L135.667 100.333M260 100L261 101L260 100M219 101L220 102L219 101M269.667 101.333L270.333 101.667L269.667 101.333M290 101L291 102L290 101M414.667 101.333L415.333 101.667L414.667 101.333M441 101L442 102L441 101M252.667 102.333L253.333 102.667L252.667 102.333M343 103L344 104L343 103M430 103L431 104L430 103M366 104L367 105L366 104M368 104L369 105L368 104M383 104L384 105L383 104M385 104L386 105L385 104M342 105L343 106L342 105M87 107L88 108L87 107M300 108L301 109L300 108M412 109L413 110L412 109M340 111L341 112L340 111M345 111L346 112L345 111M347 111L348 112L347 111M349.667 111.333L350.333 111.667L349.667 111.333M353.667 111.333L354.333 111.667L353.667 111.333M397 111L398 112L397 111M399.667 111.333L400.333 111.667L399.667 111.333M403 111L403 112L406 112L403 111M408.667 111.333L409.333 111.667L408.667 111.333M411.667 111.333L412.333 111.667L411.667 111.333z"/>
</svg>
