<?xml version="1.0" encoding="UTF-8" standalone="no"?>
<svg
   xmlns:dc="http://purl.org/dc/elements/1.1/"
   xmlns:cc="http://creativecommons.org/ns#"
   xmlns:rdf="http://www.w3.org/1999/02/22-rdf-syntax-ns#"
   xmlns:svg="http://www.w3.org/2000/svg"
   xmlns="http://www.w3.org/2000/svg"
   xmlns:sodipodi="http://sodipodi.sourceforge.net/DTD/sodipodi-0.dtd"
   xmlns:inkscape="http://www.inkscape.org/namespaces/inkscape"
   viewBox="0 0 540 540"
   version="1.1"
   id="svg951"
   sodipodi:docname="tire_blank.svg"
   inkscape:version="0.92.3 (2405546, 2018-03-11)">
  <metadata
     id="metadata957">
    <rdf:RDF>
      <cc:Work
         rdf:about="">
        <dc:format>image/svg+xml</dc:format>
        <dc:type
           rdf:resource="http://purl.org/dc/dcmitype/StillImage" />
        <dc:title>Mesa de trabajo 1</dc:title>
      </cc:Work>
    </rdf:RDF>
  </metadata>
  <defs
     id="defs955" />
  <sodipodi:namedview
     pagecolor="#ffffff"
     bordercolor="#666666"
     borderopacity="1"
     objecttolerance="10"
     gridtolerance="10"
     guidetolerance="10"
     inkscape:pageopacity="0"
     inkscape:pageshadow="2"
     inkscape:window-width="1920"
     inkscape:window-height="1001"
     id="namedview953"
     showgrid="false"
     inkscape:zoom="1.4962963"
     inkscape:cx="51.99308"
     inkscape:cy="238.65556"
     inkscape:window-x="-9"
     inkscape:window-y="-9"
     inkscape:window-maximized="1"
     inkscape:current-layer="svg951" />
  <title
     id="title887">Mesa de trabajo 1</title>
  <ellipse
     style="opacity:1;fill:#000000;fill-opacity:1;stroke:none;stroke-width:7.81974602;stroke-linecap:round;stroke-linejoin:round;stroke-miterlimit:4;stroke-dasharray:15.63949176, 7.81974588;stroke-dashoffset:0;stroke-opacity:1"
     id="path1113"
     cx="274.67822"
     cy="268.32922"
     rx="112.27723"
     ry="115.95297" />
  <path
     style="fill:#333333"
     d="M 270 0 A 270 270 0 0 0 0 270 A 270 270 0 0 0 270 540 A 270 270 0 0 0 540 270 A 270 270 0 0 0 270 0 z M 270 45 A 225 225 0 0 1 495 270 A 225 225 0 0 1 270 495 A 225 225 0 0 1 45 270 A 225 225 0 0 1 270 45 z M 195.58008 193.14062 A 107.5 107.5 0 0 0 162.50586 270.66797 A 107.5 107.5 0 0 0 270.00586 378.16797 A 107.5 107.5 0 0 0 345.76172 346.85938 A 107.5 107.5 0 0 1 271.33594 376.83203 A 107.5 107.5 0 0 1 163.83594 269.33203 A 107.5 107.5 0 0 1 195.58008 193.14062 z "
     id="circle889" />
  <path
     style="fill:#333333"
     d="M 270 65 A 205 205 0 0 0 65 270 A 205 205 0 0 0 270 475 A 205 205 0 0 0 475 270 A 205 205 0 0 0 270 65 z M 270.66797 162.5 A 107.5 107.5 0 0 1 378.16797 270 A 107.5 107.5 0 0 1 270.66797 377.5 A 107.5 107.5 0 0 1 163.16797 270 A 107.5 107.5 0 0 1 270.66797 162.5 z "
     id="circle908" />
  <path
     style="fill:#a8a8a8"
     d="M 270 120 A 150 150 0 0 0 120 270 A 150 150 0 0 0 270 420 A 150 150 0 0 0 420 270 A 150 150 0 0 0 270 120 z M 271.33594 161.83203 A 107.5 107.5 0 0 1 378.83594 269.33203 A 107.5 107.5 0 0 1 271.33594 376.83203 A 107.5 107.5 0 0 1 163.83594 269.33203 A 107.5 107.5 0 0 1 271.33594 161.83203 z "
     id="circle911" />
  <path
     style="fill:#7f7f7f"
     d="M 270 145 A 125 125 0 0 0 145 270 A 125 125 0 0 0 270 395 A 125 125 0 0 0 395 270 A 125 125 0 0 0 270 145 z M 270 162.5 A 107.5 107.5 0 0 1 377.5 270 A 107.5 107.5 0 0 1 270 377.5 A 107.5 107.5 0 0 1 162.5 270 A 107.5 107.5 0 0 1 270 162.5 z "
     id="circle914" />
  <path
     style="fill:#7f7f7f"
     d="M 158.6543 224.35938 L 153.0918 241.47852 L 240.67188 269.93555 A 30 30 0 0 1 246.12109 252.7793 L 158.6543 224.35938 z M 300.64258 270.49414 A 30 30 0 0 1 294.94727 287.57031 L 381.3457 315.64258 L 386.9082 298.52344 L 300.64258 270.49414 z "
     id="rect920" />
  <path
     style="fill:#7f7f7f"
     d="M 261 150 L 261 241.63867 A 30 30 0 0 1 270.66797 240 A 30 30 0 0 1 279 241.20312 L 279 150 L 261 150 z M 261 298.36719 L 261 390 L 279 390 L 279 298.80469 A 30 30 0 0 1 270.66797 300 A 30 30 0 0 1 261 298.36719 z "
     id="rect922" />
  <path
     style="fill:#7f7f7f"
     d="M 333.25 167.625 L 279.66016 241.38672 A 30 30 0 0 1 294.41602 251.69922 L 347.8125 178.20508 L 333.25 167.625 z M 246.25195 287.36719 L 192.18164 361.78906 L 206.74414 372.36914 L 260.61328 298.22656 A 30 30 0 0 1 246.25195 287.36719 z "
     id="rect924" />
  <path
     style="fill:#7f7f7f"
     d="M 381.3457 224.35742 L 294.94141 252.43164 A 30 30 0 0 1 300.65039 269.50391 L 386.9082 241.47656 L 381.3457 224.35742 z M 240.66992 270.06641 L 153.0918 298.52148 L 158.6543 315.64062 L 246.14258 287.21484 A 30 30 0 0 1 240.66992 270.06641 z "
     id="rect926" />
  <path
     style="fill:#7f7f7f"
     d="M 206.75 167.63086 L 192.1875 178.21094 L 245.8418 252.05859 A 30 30 0 0 1 260.74414 241.94922 L 206.75 167.63086 z M 294.00391 287.72461 A 30 30 0 0 1 279.7793 298.76953 L 333.25586 372.375 L 347.81836 361.79492 L 294.00391 287.72461 z "
     id="rect928" />
  <path
     style="fill:#7f7f7f"
     d="M 270.66406 225 A 45 45 0 0 0 225.66406 270 A 45 45 0 0 0 270.66406 315 A 45 45 0 0 0 315.66406 270 A 45 45 0 0 0 270.66406 225 z M 270.66797 240 A 30 30 0 0 1 300.66797 270 A 30 30 0 0 1 270.66797 300 A 30 30 0 0 1 240.66797 270 A 30 30 0 0 1 270.66797 240 z "
     id="circle931" />
  <flowRoot
     xml:space="preserve"
     id="flowRoot4662"
     style="fill:black;fill-opacity:1;stroke:none;font-family:sans-serif;font-style:normal;font-weight:normal;font-size:40px;line-height:1.25;letter-spacing:0px;word-spacing:0px"><flowRegion
       id="flowRegion4664"><rect
         id="rect4666"
         width="221.39822"
         height="72.15419"
         x="161.73267"
         y="43.440594" /></flowRegion><flowPara
       id="flowPara4668" /></flowRoot>  <path
     style="fill:#333333;stroke:none;stroke-width:1px;stroke-linecap:butt;stroke-linejoin:miter;stroke-opacity:1;fill-opacity:1"
     d="M 196.48515,104.25743 155.71782,41.435644 c 0,0 225.89109,-10.024753 225.22277,-4.678218 -0.66831,5.346534 -2.00495,-4.009901 -0.66831,5.346534 1.33663,9.356436 1.33663,9.356436 1.33663,9.356436 l -38.76238,54.801984 z"
     id="path4670"
     inkscape:connector-curvature="0" />
  <path
     style="fill:#333333;fill-opacity:1;stroke:none;stroke-width:1px;stroke-linecap:butt;stroke-linejoin:miter;stroke-opacity:1"
     d="m 329.44065,430.20022 44.30724,60.37731 c 0,0 -224.94279,22.9787 -224.58256,17.6026 0.36021,-5.37608 2.23188,3.88816 0.36021,-5.37608 -1.87166,-9.26426 -1.87166,-9.26426 -1.87166,-9.26426 l 35.55174,-56.93726 z"
     id="path4670-8"
     inkscape:connector-curvature="0" />
</svg>
